<svg width="244" height="80" viewBox="0 0 244 80" fill="none" xmlns="http://www.w3.org/2000/svg">
<g clip-path="url(#clip0_1156_263)">
<path d="M232.286 68.2813C247.905 52.6604 247.905 27.3338 232.286 11.7128C216.666 -3.90817 191.343 -3.90818 175.723 11.7128C160.104 27.3338 160.104 52.6604 175.723 68.2813C191.343 83.9023 216.666 83.9023 232.286 68.2813Z" fill="#C49A6C"/>
<path d="M2.05573 56.4897C0.684073 56.4897 0 55.8056 0 54.4338V30.1692C0 28.7974 0.684073 28.1133 2.05573 28.1133C3.42738 28.1133 4.05182 28.7974 4.05182 30.1692V52.7076H17.4772C18.7366 52.7076 19.368 53.3251 19.368 54.5566C19.368 55.788 18.7366 56.4897 17.4772 56.4897H2.05573Z" fill="#51372C"/>
<path d="M28.4157 31.6072C28.4157 32.8563 28.314 34.014 28.107 35.0841C27.8755 36.4138 27.4826 37.6137 26.9353 38.6838C26.4828 39.5188 25.9075 39.9398 25.2094 39.9398C24.0587 39.9398 23.4834 39.4802 23.4834 38.561C23.4834 38.354 23.5255 38.1365 23.6062 37.9014L23.8517 37.326C24.5919 35.6525 24.9603 33.9263 24.9603 32.144V29.9232C24.9603 28.6882 25.5356 28.0742 26.6863 28.0742C27.8369 28.0742 28.4122 28.6917 28.4122 29.9232V31.6108L28.4157 31.6072Z" fill="#51372C"/>
<path d="M49.1409 40.5331C50.7301 42.3575 51.5264 44.645 51.5264 47.4027C51.5264 48.2938 51.0177 48.7394 50.0039 48.7394H37.4205C37.666 52.1391 39.5604 53.8407 43.0965 53.8407C44.8927 53.8407 46.5239 53.1566 47.9903 51.7848C48.4007 51.3602 48.8322 51.1462 49.2848 51.1462C50.3828 51.1462 50.93 51.6935 50.93 52.7917C50.93 53.1636 50.7581 53.539 50.4144 53.9214C48.6463 55.9774 46.1521 57.0054 42.9317 57.0054C39.9147 57.0054 37.5292 56.0511 35.7752 54.146C34.1439 52.3777 33.3301 50.1147 33.3301 47.3606C33.3301 44.6064 34.2211 42.2874 36.0032 40.4524C37.7994 38.628 40.055 37.7158 42.7668 37.7158C45.4785 37.7158 47.4956 38.6561 49.1409 40.5331ZM47.864 45.5502C47.6851 44.2205 47.1519 43.1224 46.2608 42.2593C45.2996 41.326 44.1349 40.8594 42.7668 40.8594C39.7113 40.8594 37.9572 42.4207 37.5047 45.5467H47.8675L47.864 45.5502Z" fill="#51372C"/>
<path d="M63.5947 57.0054C60.9777 57.0054 58.743 56.2861 56.8908 54.8477C56.3295 54.4091 56.0488 53.8618 56.0488 53.2022C56.0488 52.283 56.5575 51.8234 57.5713 51.8234C58.066 51.8234 58.5852 52.0163 59.1324 52.3987C59.7779 52.8934 60.455 53.2759 61.1671 53.5495C62.0441 53.8793 62.9492 54.0442 63.8823 54.0442C66.2117 54.0442 67.3764 53.332 67.3764 51.904C67.3764 50.7919 65.9977 49.8691 63.2439 49.1289C58.529 47.8553 56.1716 45.7923 56.1716 42.9399C56.1716 39.4595 58.6588 37.7158 63.6368 37.7158C65.4996 37.7158 67.2431 38.1053 68.8603 38.8876C70.1477 39.5051 70.7932 40.1893 70.7932 40.9436C70.7932 41.9295 70.2846 42.4242 69.2707 42.4242C68.8603 42.4242 68.285 42.2242 67.5448 41.8277C66.338 41.1822 65.0084 40.8629 63.5561 40.8629C61.1987 40.8629 60.02 41.533 60.02 42.8768C60.02 43.9048 61.4442 44.838 64.2963 45.673C66.7765 46.3852 68.499 47.1115 69.4567 47.8518C70.6213 48.7429 71.2037 49.9919 71.2037 51.5953C71.2037 55.202 68.6673 57.0018 63.5947 57.0018V57.0054Z" fill="#51372C"/>
<path d="M92.792 54.3491C91.1327 56.1173 89.063 57.0015 86.5828 57.0015C83.7728 57.0015 81.6153 55.7875 80.1069 53.3632V62.7202C80.1069 64.0359 79.4403 64.6955 78.1108 64.6955C76.7812 64.6955 76.1357 64.0359 76.1357 62.7202V39.8556C76.1357 38.5399 76.7672 37.8803 78.0266 37.8803C79.286 37.8803 79.9595 38.5504 79.9595 39.8942V41.3326C81.3593 38.9188 83.5658 37.7119 86.5793 37.7119C89.0314 37.7119 91.1012 38.6171 92.7885 40.4275C94.5145 42.2764 95.3775 44.5885 95.3775 47.3567C95.3775 50.1249 94.5145 52.5247 92.7885 54.3491H92.792ZM89.8698 42.7536C88.842 41.5747 87.4773 40.9853 85.7794 40.9853C84.0815 40.9853 82.7484 41.6309 81.668 42.9185C80.6261 44.1394 80.1069 45.62 80.1069 47.3602C80.1069 49.1004 80.6261 50.5669 81.668 51.8019C82.752 53.0755 84.1201 53.714 85.7794 53.714C87.4387 53.714 88.842 53.1246 89.8698 51.9458C90.8977 50.7809 91.4134 49.2513 91.4134 47.3602C91.4134 45.4691 90.8977 43.9184 89.8698 42.7536Z" fill="#51372C"/>
<path d="M116.25 54.8437C116.25 56.1594 115.605 56.819 114.317 56.819C113.03 56.819 112.384 56.1594 112.384 54.8437V54.4718C111.055 56.1594 109.073 57.0015 106.442 57.0015C104.386 57.0015 102.706 56.4752 101.404 55.4191C100.103 54.3631 99.4502 52.9913 99.4502 51.3072C99.4502 49.4828 100.134 48.0584 101.506 47.0304C102.793 46.0726 104.495 45.5919 106.607 45.5919C108.869 45.5919 110.767 46.3041 112.304 47.7321V45.9217C112.304 42.6869 110.616 41.0695 107.245 41.0695C106.435 41.0695 105.67 41.1467 104.944 41.2941C104.383 41.4028 103.758 41.5818 103.074 41.8273L102.457 42.0519C102.197 42.1326 101.969 42.1747 101.78 42.1747C100.657 42.1747 100.092 41.6274 100.092 40.5292C100.092 39.7609 100.71 39.1293 101.941 38.6381C103.477 38.0207 105.354 37.7119 107.575 37.7119C113.36 37.7119 116.25 40.3643 116.25 45.6691V54.8402V54.8437ZM110.883 49.1074C110.006 48.5882 108.978 48.325 107.799 48.325C104.881 48.325 103.421 49.3179 103.421 51.3072C103.421 53.2965 104.846 54.3105 107.698 54.3105C108.971 54.3105 110.048 54.0298 110.925 53.4684C111.844 52.893 112.304 52.1738 112.304 51.3107C112.304 50.4476 111.83 49.6723 110.886 49.1109L110.883 49.1074Z" fill="#51372C"/>
<path d="M137.509 40.3674C137.892 40.806 138.085 41.2656 138.085 41.7462C138.085 42.8163 137.481 43.3496 136.274 43.3496C135.973 43.3496 135.664 43.2338 135.348 42.9988L134.587 42.3392C133.587 41.4621 132.394 41.0235 131.009 41.0235C129.146 41.0235 127.666 41.662 126.568 42.9356C125.582 44.0864 125.087 45.5599 125.087 47.3563C125.087 49.1526 125.582 50.6121 126.568 51.7769C127.666 53.04 129.146 53.668 131.009 53.668C132.394 53.668 133.587 53.2295 134.587 52.3523L135.348 51.6927C135.664 51.4612 135.973 51.3419 136.274 51.3419C137.481 51.3419 138.085 51.8752 138.085 52.9453C138.085 53.4259 137.892 53.8925 137.509 54.3451C136.029 56.1134 133.85 56.9975 130.97 56.9975C128.09 56.9975 125.543 56.0573 123.733 54.1802C121.993 52.3979 121.123 50.121 121.123 47.3528C121.123 44.5846 121.993 42.2866 123.733 40.5043C125.543 38.6413 127.953 37.708 130.97 37.708C133.987 37.708 136.029 38.5921 137.509 40.3604V40.3674Z" fill="#51372C"/>
<path d="M157.99 40.5331C159.579 42.3575 160.375 44.645 160.375 47.4027C160.375 48.2938 159.866 48.7394 158.853 48.7394H146.269C146.515 52.1391 148.409 53.8407 151.945 53.8407C153.741 53.8407 155.373 53.1566 156.839 51.7848C157.249 51.3602 157.681 51.1462 158.133 51.1462C159.231 51.1462 159.779 51.6935 159.779 52.7917C159.779 53.1636 159.607 53.539 159.263 53.9214C157.495 55.9774 155.001 57.0054 151.78 57.0054C148.763 57.0054 146.378 56.0511 144.624 54.146C142.993 52.3777 142.179 50.1147 142.179 47.3606C142.179 44.6064 143.07 42.2874 144.852 40.4524C146.648 38.628 148.904 37.7158 151.615 37.7158C154.327 37.7158 156.344 38.6561 157.99 40.5331ZM156.713 45.5502C156.534 44.2205 156 43.1224 155.109 42.2593C154.148 41.326 152.984 40.8594 151.615 40.8594C148.56 40.8594 146.806 42.4207 146.353 45.5467H156.716L156.713 45.5502Z" fill="#51372C"/>
<path d="M212.722 41.4979C209.158 41.4979 207.375 43.6451 207.375 47.9324V54.8406C207.375 56.1563 206.709 56.8159 205.379 56.8159C204.05 56.8159 203.404 56.1563 203.404 54.8406V39.891C203.404 38.5473 204.074 37.8772 205.418 37.8772C206.762 37.8772 207.372 38.5473 207.372 39.891V41.7014C208.14 39.0981 209.922 37.793 212.718 37.793C213.953 37.793 214.567 38.4105 214.567 39.6419C214.567 40.8734 213.95 41.4909 212.718 41.4909L212.722 41.4979Z" fill="#51372C"/>
<path d="M224.4 54.8439C224.4 56.1596 223.741 56.8192 222.425 56.8192C221.11 56.8192 220.45 56.1596 220.45 54.8439V41.4977H217.244C216.146 41.4977 215.599 40.9504 215.599 39.8523C215.599 38.7541 216.146 38.2068 217.244 38.2068H220.45V32.695C220.45 31.3793 221.11 30.7197 222.425 30.7197C223.741 30.7197 224.4 31.3793 224.4 32.695V38.2068H228.021C229.119 38.2068 229.666 38.7541 229.666 39.8523C229.666 40.9504 229.119 41.4977 228.021 41.4977H224.4V54.8439Z" fill="#51372C"/>
<path d="M6.73194 71.8361C6.73194 72.1799 6.55303 72.3518 6.19871 72.3518C6.03033 72.3518 5.89351 72.2886 5.78827 72.1623L1.38565 66.5558V71.8396C1.38565 72.1834 1.21024 72.3553 0.859436 72.3553C0.508629 72.3553 0.34375 72.1834 0.34375 71.8396V65.0542C0.34375 64.7033 0.522661 64.5279 0.880484 64.5279C1.05238 64.5279 1.18919 64.6016 1.29444 64.7454L5.67952 70.3239V65.0507C5.67952 64.6998 5.85843 64.5244 6.21274 64.5244C6.56706 64.5244 6.72843 64.6998 6.72843 65.0507V71.8361H6.73194Z" fill="#51372C"/>
<path d="M12.0113 67.7239C12.0113 67.366 12.1902 67.1871 12.5481 67.1871C12.9059 67.1871 13.0918 67.366 13.0918 67.7239V70.0219C13.0918 70.9517 13.5233 71.4183 14.3863 71.4183C14.8037 71.4183 15.137 71.2815 15.3861 71.0078C15.6246 70.7447 15.7439 70.4149 15.7439 70.0079V67.7204C15.7439 67.3625 15.9228 67.1836 16.2806 67.1836C16.6385 67.1836 16.8174 67.3625 16.8174 67.7204V71.7972C16.8174 72.1621 16.6385 72.3481 16.2806 72.3481C15.9228 72.3481 15.7439 72.1656 15.7439 71.7972V71.4323C15.4071 72.0744 14.8564 72.3972 14.0881 72.3972C13.4426 72.3972 12.9304 72.1761 12.5516 71.7341C12.1902 71.3131 12.0078 70.7552 12.0078 70.064V67.7204L12.0113 67.7239Z" fill="#51372C"/>
<path d="M24.5281 68.1725C23.5564 68.1725 23.0688 68.7585 23.0688 69.9268V71.8108C23.0688 72.1687 22.8863 72.3476 22.525 72.3476C22.1637 72.3476 21.9883 72.1687 21.9883 71.8108V67.734C21.9883 67.3691 22.1707 67.1832 22.539 67.1832C22.9074 67.1832 23.0723 67.3656 23.0723 67.734V68.2287C23.2828 67.52 23.7669 67.1621 24.5316 67.1621C24.8684 67.1621 25.0368 67.3305 25.0368 67.6673C25.0368 68.0041 24.8684 68.1725 24.5316 68.1725H24.5281Z" fill="#51372C"/>
<path d="M31.1587 71.8112C31.1587 72.1691 30.9798 72.348 30.622 72.348C30.2641 72.348 30.0852 72.1691 30.0852 71.8112V68.1729H29.2117C28.9135 68.1729 28.7627 68.022 28.7627 67.7238C28.7627 67.4256 28.9135 67.2747 29.2117 67.2747H30.0852V65.7731C30.0852 65.4153 30.2641 65.2363 30.622 65.2363C30.9798 65.2363 31.1587 65.4153 31.1587 65.7731V67.2747H32.1445C32.4427 67.2747 32.5935 67.4256 32.5935 67.7238C32.5935 68.022 32.4427 68.1729 32.1445 68.1729H31.1587V71.8112Z" fill="#51372C"/>
<path d="M36.8414 67.7239C36.8414 67.366 37.0203 67.1871 37.3781 67.1871C37.736 67.1871 37.9219 67.366 37.9219 67.7239V70.0219C37.9219 70.9517 38.3534 71.4183 39.2164 71.4183C39.6338 71.4183 39.9671 71.2815 40.2162 71.0078C40.4547 70.7447 40.574 70.4149 40.574 70.0079V67.7204C40.574 67.3625 40.7529 67.1836 41.1107 67.1836C41.4685 67.1836 41.6474 67.3625 41.6474 67.7204V71.7972C41.6474 72.1621 41.4685 72.3481 41.1107 72.3481C40.7529 72.3481 40.574 72.1656 40.574 71.7972V71.4323C40.2372 72.0744 39.6864 72.3972 38.9182 72.3972C38.2727 72.3972 37.7605 72.1761 37.3816 71.7341C37.0203 71.3131 36.8379 70.7552 36.8379 70.064V67.7204L36.8414 67.7239Z" fill="#51372C"/>
<path d="M49.3582 68.1725C48.3865 68.1725 47.8988 68.7585 47.8988 69.9268V71.8108C47.8988 72.1687 47.7164 72.3476 47.3551 72.3476C46.9938 72.3476 46.8184 72.1687 46.8184 71.8108V67.734C46.8184 67.3691 47.0008 67.1832 47.3691 67.1832C47.7375 67.1832 47.9024 67.3656 47.9024 67.734V68.2287C48.1128 67.52 48.5969 67.1621 49.3617 67.1621C49.6985 67.1621 49.8669 67.3305 49.8669 67.6673C49.8669 68.0041 49.6985 68.1725 49.3617 68.1725H49.3582Z" fill="#51372C"/>
<path d="M54.8449 65.1377C55.2624 65.1377 55.4729 65.3482 55.4729 65.7727C55.4729 66.1973 55.2624 66.4078 54.8449 66.4078C54.4275 66.4078 54.21 66.1973 54.21 65.7727C54.21 65.3482 54.4204 65.1377 54.8449 65.1377ZM55.3852 71.8108C55.3852 72.1687 55.2063 72.3476 54.8484 72.3476C54.4906 72.3476 54.3047 72.1687 54.3047 71.8108V67.7234C54.3047 67.3656 54.4871 67.1866 54.8484 67.1866C55.2098 67.1866 55.3852 67.3656 55.3852 67.7234V71.8108Z" fill="#51372C"/>
<path d="M65.3555 71.8114C65.3555 72.1692 65.1765 72.3482 64.8187 72.3482C64.4609 72.3482 64.282 72.1692 64.282 71.8114V69.5168C64.282 68.5836 63.847 68.1134 62.9805 68.1134C62.563 68.1134 62.2298 68.2503 61.9807 68.5239C61.7457 68.7871 61.6264 69.1204 61.6264 69.5274V71.8114C61.6264 72.1692 61.444 72.3482 61.0826 72.3482C60.7213 72.3482 60.5459 72.1692 60.5459 71.8114V67.7345C60.5459 67.3697 60.7248 67.1837 61.0826 67.1837C61.4405 67.1837 61.6264 67.3661 61.6264 67.7345V68.1064C61.9596 67.4644 62.5069 67.1416 63.2752 67.1416C63.9242 67.1416 64.4363 67.3591 64.8117 67.7977C65.173 68.2187 65.3555 68.7765 65.3555 69.4677V71.8114Z" fill="#51372C"/>
<path d="M75.3951 71.909C75.3951 72.7335 75.1882 73.365 74.7742 73.8001C74.3217 74.2667 73.6341 74.5018 72.7115 74.5018C72.3642 74.5018 72.0344 74.4667 71.7187 74.3965C71.3644 74.3088 71.0276 74.179 70.7084 74.0001C70.5189 73.8878 70.4207 73.7475 70.4207 73.5755C70.4207 73.4036 70.4979 73.2703 70.6522 73.1826C70.8171 73.0914 70.996 73.1054 71.189 73.2212C71.6555 73.4984 72.1396 73.6352 72.6343 73.6352C73.2552 73.6352 73.6972 73.4878 73.9638 73.1966C74.1954 72.944 74.3111 72.5405 74.3111 71.9897V71.2565C73.9463 71.8985 73.364 72.2213 72.5676 72.2213C71.8344 72.2213 71.2416 71.9722 70.789 71.4705C70.3575 70.9968 70.1436 70.4004 70.1436 69.6811C70.1436 68.9619 70.3575 68.362 70.789 67.8848C71.2381 67.3901 71.8309 67.1445 72.5676 67.1445C73.385 67.1445 73.9814 67.4673 74.3497 68.1094V67.7375C74.3497 67.3726 74.5216 67.1866 74.8654 67.1866C75.2092 67.1866 75.3916 67.3656 75.3916 67.7234V71.9055L75.3951 71.909ZM73.8937 68.5198C73.606 68.2006 73.2342 68.0427 72.7781 68.0427C72.3221 68.0427 71.9432 68.1971 71.6555 68.5093C71.3714 68.8111 71.2311 69.2005 71.2311 69.6741C71.2311 70.1478 71.3714 70.5337 71.6555 70.8389C71.9432 71.1477 72.3186 71.3056 72.7781 71.3056C73.2377 71.3056 73.606 71.1477 73.8937 70.8284C74.1743 70.5197 74.3146 70.1337 74.3146 69.6741C74.3146 69.2145 74.1743 68.8251 73.8937 68.5198Z" fill="#51372C"/>
<path d="M91.5779 67.9303L91.2867 68.7197L90.5254 70.6669C90.3711 71.0388 90.2202 71.4002 90.0659 71.7545C89.5081 73.0422 88.7995 73.9298 87.94 74.4175C87.8628 74.4701 87.7716 74.4947 87.6664 74.4947C87.3436 74.4947 87.1858 74.3508 87.1858 74.0631C87.1858 73.8772 87.277 73.7263 87.4594 73.614C88.0277 73.2316 88.4662 72.7545 88.7714 72.1791L86.9753 67.8847C86.9613 67.8426 86.9507 67.8075 86.9472 67.7724C86.9367 67.7303 86.9297 67.6952 86.9297 67.6672C86.9297 67.3444 87.0911 67.1865 87.4103 67.1865C87.6313 67.1865 87.7857 67.2848 87.8698 67.4847L89.3397 71.1476L90.6623 67.576C90.7535 67.3163 90.9219 67.19 91.1674 67.19C91.4726 67.19 91.627 67.3549 91.627 67.6847C91.627 67.7759 91.6094 67.8601 91.5779 67.9373V67.9303Z" fill="#51372C"/>
<path d="M100.439 71.6289C99.9448 72.1447 99.3098 72.4043 98.5275 72.4043C97.7452 72.4043 97.1103 72.1447 96.6156 71.6289C96.1385 71.1307 95.8965 70.5132 95.8965 69.7729C95.8965 69.0327 96.135 68.4082 96.6156 67.91C97.1103 67.3977 97.7452 67.1416 98.5275 67.1416C99.3098 67.1416 99.9448 67.3977 100.439 67.91C100.917 68.4082 101.159 69.0292 101.159 69.7729C101.159 70.5167 100.92 71.1307 100.439 71.6289ZM99.6852 68.566C99.401 68.2257 99.0152 68.0573 98.531 68.0573C98.0469 68.0573 97.661 68.2257 97.3769 68.566C97.1138 68.8818 96.984 69.2818 96.984 69.7729C96.984 70.2641 97.1138 70.6606 97.3769 70.9728C97.661 71.3132 98.0469 71.4816 98.531 71.4816C99.0152 71.4816 99.401 71.3132 99.6852 70.9728C99.9483 70.6571 100.078 70.2571 100.078 69.7729C100.078 69.2888 99.9483 68.8818 99.6852 68.566Z" fill="#51372C"/>
<path d="M105.944 67.7239C105.944 67.366 106.123 67.1871 106.481 67.1871C106.838 67.1871 107.024 67.366 107.024 67.7239V70.0219C107.024 70.9517 107.456 71.4183 108.319 71.4183C108.736 71.4183 109.07 71.2815 109.319 71.0078C109.557 70.7447 109.677 70.4149 109.677 70.0079V67.7204C109.677 67.3625 109.855 67.1836 110.213 67.1836C110.571 67.1836 110.75 67.3625 110.75 67.7204V71.7972C110.75 72.1621 110.571 72.3481 110.213 72.3481C109.855 72.3481 109.677 72.1656 109.677 71.7972V71.4323C109.34 72.0744 108.789 72.3972 108.021 72.3972C107.375 72.3972 106.863 72.1761 106.484 71.7341C106.123 71.3131 105.94 70.7552 105.94 70.064V67.7204L105.944 67.7239Z" fill="#51372C"/>
<path d="M118.461 68.1725C117.489 68.1725 117.001 68.7585 117.001 69.9268V71.8108C117.001 72.1687 116.819 72.3476 116.458 72.3476C116.096 72.3476 115.921 72.1687 115.921 71.8108V67.734C115.921 67.3691 116.103 67.1832 116.472 67.1832C116.84 67.1832 117.005 67.3656 117.005 67.734V68.2287C117.215 67.52 117.699 67.1621 118.464 67.1621C118.801 67.1621 118.969 67.3305 118.969 67.6673C118.969 68.0041 118.801 68.1725 118.464 68.1725H118.461Z" fill="#51372C"/>
<path d="M132.176 72.4008C131.461 72.4008 130.854 72.2043 130.349 71.8114C130.194 71.6921 130.117 71.5412 130.117 71.3623C130.117 71.1132 130.254 70.9869 130.531 70.9869C130.664 70.9869 130.808 71.0395 130.956 71.1448C131.131 71.2781 131.317 71.3833 131.51 71.4605C131.748 71.5517 131.998 71.5938 132.25 71.5938C132.885 71.5938 133.204 71.4009 133.204 71.0114C133.204 70.7097 132.829 70.4571 132.078 70.2536C130.791 69.9063 130.149 69.3449 130.149 68.566C130.149 67.6152 130.826 67.1416 132.183 67.1416C132.692 67.1416 133.166 67.2469 133.608 67.4609C133.959 67.6293 134.134 67.8152 134.134 68.0222C134.134 68.2924 133.997 68.4257 133.72 68.4257C133.608 68.4257 133.45 68.3731 133.25 68.2643C132.92 68.0889 132.559 68.0012 132.162 68.0012C131.52 68.0012 131.198 68.1836 131.198 68.552C131.198 68.8327 131.587 69.0853 132.362 69.3133C133.039 69.5063 133.509 69.7063 133.769 69.9063C134.088 70.1484 134.246 70.4887 134.246 70.9272C134.246 71.9096 133.555 72.4008 132.173 72.4008H132.176Z" fill="#51372C"/>
<path d="M143.266 71.6289C142.771 72.1447 142.136 72.4043 141.354 72.4043C140.571 72.4043 139.936 72.1447 139.442 71.6289C138.965 71.1307 138.723 70.5132 138.723 69.7729C138.723 69.0327 138.961 68.4082 139.442 67.91C139.936 67.3977 140.571 67.1416 141.354 67.1416C142.136 67.1416 142.771 67.3977 143.266 67.91C143.743 68.4082 143.985 69.0292 143.985 69.7729C143.985 70.5167 143.746 71.1307 143.266 71.6289ZM142.508 68.566C142.224 68.2257 141.838 68.0573 141.354 68.0573C140.87 68.0573 140.484 68.2257 140.2 68.566C139.936 68.8818 139.807 69.2818 139.807 69.7729C139.807 70.2641 139.936 70.6606 140.2 70.9728C140.484 71.3132 140.87 71.4816 141.354 71.4816C141.838 71.4816 142.224 71.3132 142.508 70.9728C142.771 70.6571 142.901 70.2571 142.901 69.7729C142.901 69.2888 142.771 68.8818 142.508 68.566Z" fill="#51372C"/>
<path d="M148.766 67.7239C148.766 67.366 148.945 67.1871 149.303 67.1871C149.661 67.1871 149.847 67.366 149.847 67.7239V70.0219C149.847 70.9517 150.278 71.4183 151.141 71.4183C151.559 71.4183 151.892 71.2815 152.141 71.0078C152.38 70.7447 152.499 70.4149 152.499 70.0079V67.7204C152.499 67.3625 152.678 67.1836 153.036 67.1836C153.393 67.1836 153.572 67.3625 153.572 67.7204V71.7972C153.572 72.1621 153.393 72.3481 153.036 72.3481C152.678 72.3481 152.499 72.1656 152.499 71.7972V71.4323C152.162 72.0744 151.611 72.3972 150.843 72.3972C150.197 72.3972 149.685 72.1761 149.306 71.7341C148.945 71.3131 148.763 70.7552 148.763 70.064V67.7204L148.766 67.7239Z" fill="#51372C"/>
<path d="M159.828 71.8111C159.828 72.169 159.645 72.3479 159.284 72.3479C158.922 72.3479 158.747 72.169 158.747 71.8111V65.0573C158.747 64.6994 158.926 64.5205 159.284 64.5205C159.642 64.5205 159.828 64.6994 159.828 65.0573V71.8111Z" fill="#51372C"/>
<path d="M189.881 11.7041H186.457L175.147 57.0089H201.216L189.881 11.7041Z" fill="#F1F2F2"/>
<path d="M180.904 42.3604H195.452" stroke="#5D5E5E" stroke-miterlimit="10"/>
<path d="M180.185 45.2451H196.083" stroke="#5D5E5E" stroke-miterlimit="10"/>
<path d="M179.466 48.125H196.894" stroke="#5D5E5E" stroke-miterlimit="10"/>
<path d="M178.746 51.0088H197.549" stroke="#5D5E5E" stroke-miterlimit="10"/>
<path d="M178.027 53.8896H198.336" stroke="#5D5E5E" stroke-miterlimit="10"/>
</g>
<defs>
<clipPath id="clip0_1156_263">
<rect width="244" height="80" fill="white"/>
</clipPath>
</defs>
</svg>
